# xmcd CD database file
#
# Track frame offsets:
#	182
#	13865
#	39890
#	67450
#	95310
#	120525
#	147277
#
# Disc length: 2341 seconds
#
# Revision: 0
# Processed by: cddbd v1.5.1PL2 Copyright (c) Steve Scherf et al.
# Submitted via: CDex 1.51
#
DISCID=5d092307
DTITLE=Disco Band - Noel Disco
DYEAR=1900
DGENRE=Noel
TTITLE0=Les Supers Classels  -  le sentier de neige (disco)
TTITLE1=Disco Band  -  medley Noel (au royaume du bonhomme hiver -la promenade en traineau etc..)
TTITLE2=Disco Band  -  Noel Blanc and Joyeux Noel
TTITLE3=Disco Band  -  medley Noel ( le p'tit renne au nez rouge-l'enfant au tambour etc...)
TTITLE4=Disco Band  -  Medley Noel ( nous vous souhaitons un joyeux noel-Deck The Halls etc...)
TTITLE5=Disco Band  -  Medley Noel (il est né le divin enfant-ça berger etc..)
TTITLE6=Disco Band  -  Meldey Année (vive la compagnie(reprise)-c'est dans l'temps Etc...)
EXTD=
EXTT0=
EXTT1=
EXTT2=
EXTT3=
EXTT4=
EXTT5=
EXTT6=
PLAYORDER=
